<svg width="602" height="338" xmlns="http://www.w3.org/2000/svg" xmlns:xlink="http://www.w3.org/1999/xlink" xml:space="preserve" overflow="hidden"><defs><clipPath id="clip0"><rect x="0" y="0" width="602" height="338"/></clipPath></defs><g clip-path="url(#clip0)"><path d="M0 65.0963 54.4556 98.8963 109.537 78.2407 163.993 81.9963 218.448 102.026 272.904 102.026 327.985 105.156 382.441 108.911 436.896 85.1259 491.352 65.0963 546.433 78.2407 600.889 92.0111 600.889 0 546.433 0 491.352 0 436.896 0 382.441 0 327.985 0 272.904 0 218.448 0 163.993 0 109.537 0 54.4556 0 0 0Z" fill="#003223" transform="matrix(-1.00185 1.22691e-16 -1.22465e-16 -1 602 338)"/><path d="M0 115.796 54.4556 122.056 109.537 132.696 163.993 135.826 218.448 128.941 272.904 149.596 327.985 145.841 382.441 138.956 436.896 115.796 491.352 92.0111 546.433 118.926 600.889 118.926 600.889 90.7593 546.433 76.9889 491.352 63.8444 436.896 83.8741 382.441 107.659 327.985 103.904 272.904 100.774 218.448 100.774 163.993 80.7444 109.537 76.9889 54.4556 97.6444 0 63.8444Z" fill="#013B2D" transform="matrix(-1.00185 1.22691e-16 -1.22465e-16 -1 602 338)"/><path d="M0 142.711 54.4556 155.856 109.537 179.641 163.993 193.411 218.448 189.656 272.904 210.311 327.985 186.526 382.441 176.511 436.896 162.741 491.352 159.611 546.433 179.641 600.889 159.611 600.889 117.674 546.433 117.674 491.352 90.7593 436.896 114.544 382.441 137.704 327.985 144.589 272.904 148.344 218.448 127.689 163.993 134.574 109.537 131.444 54.4556 120.804 0 114.544Z" fill="#014537" transform="matrix(-1.00185 1.22691e-16 -1.22465e-16 -1 602 338)"/><path d="M0 223.456 54.4556 247.241 109.537 217.196 163.993 230.341 218.448 267.896 272.904 281.041 327.985 227.211 382.441 244.111 436.896 220.326 491.352 237.226 546.433 230.341 600.889 250.996 600.889 158.359 546.433 178.389 491.352 158.359 436.896 161.489 382.441 175.259 327.985 185.274 272.904 209.059 218.448 188.404 163.993 192.159 109.537 178.389 54.4556 154.604 0 141.459Z" fill="#024F42" transform="matrix(-1.00185 1.22691e-16 -1.22465e-16 -1 602 338)"/><path d="M0 338.626 54.4556 338.626 109.537 338.626 163.993 338.626 218.448 338.626 272.904 338.626 327.985 338.626 382.441 338.626 436.896 338.626 491.352 338.626 546.433 338.626 600.889 338.626 600.889 249.744 546.433 229.089 491.352 235.974 436.896 219.074 382.441 242.859 327.985 225.959 272.904 279.789 218.448 266.644 163.993 229.089 109.537 215.944 54.4556 245.989 0 222.204Z" fill="#02594E" transform="matrix(-1.00185 1.22691e-16 -1.22465e-16 -1 602 338)"/></g></svg>